<svg xmlns="http://www.w3.org/2000/svg" viewBox="1668 1594 98205 98141">
  <path fill="green" d="
M 98205,50305
L 97813,50305
L 97813,51516
L 97783,51516
L 97783,52726
L 97723,52726
L 97723,53925
L 97529,53925
L 97529,55124
L 97383,55124
L 97383,56376
L 97639,56376
L 97639,57596
L 97555,57596
L 97555,58689
L 96759,58689
L 96759,60060
L 97414,60060
L 97414,61189
L 96856,61189
L 96856,62354
L 96490,62354
L 96490,63466
L 95949,63466
L 95949,64751
L 95985,64751
L 95985,65812
L 95312,65812
L 95312,66989
L 94987,66989
L 94987,68037
L 94332,68037
L 94332,69127
L 93798,69127
L 93798,70242
L 93324,70242
L 93324,71482
L 93096,71482
L 93096,72495
L 92402,72495
L 92402,73478
L 91670,73478
L 91670,74710
L 91370,74710
L 91370,75506
L 90344,75506
L 90344,76548
L 89728,76548
L 89728,77514
L 88997,77514
L 88997,78864
L 88786,78864
L 88786,79393
L 87475,79393
L 87475,80380
L 86776,80380
L 86776,81370
L 86073,81370
L 86073,82288
L 85282,82288
L 85282,83613
L 84912,83613
L 84912,83898
L 83467,83898
L 83467,84711
L 82575,84711
L 82575,85781
L 81914,85781
L 81914,86670
L 81076,86670
L 81076,87284
L 80007,87284
L 80007,88497
L 79407,88497
L 79407,89236
L 78427,89236
L 78427,89627
L 77207,89627
L 77207,90199
L 76126,90199
L 76126,91291
L 75372,91291
L 75372,91401
L 74016,91401
L 74016,91983
L 72952,91983
L 72952,92251
L 71727,92251
L 71727,93516
L 71001,93516
L 71001,93679
L 69732,93679
L 69732,94022
L 68559,94022
L 68559,95078
L 67673,95078
L 67673,94873
L 66293,94873
L 66293,95377
L 65187,95377
L 65187,95478
L 63950,95478
L 63950,96455
L 62972,96455
L 62972,96602
L 61748,96602
L 61748,96579
L 60495,96579
L 60495,97372
L 59420,97372
L 59420,97691
L 58233,97691
L 58233,97735
L 57000,97735
L 57000,98001
L 55801,98001
L 55801,97591
L 54532,97591
L 54532,98041
L 53349,98041
L 53349,97790
L 52117,97790
L 52117,98141
L 50912,98141
L 50912,97902
L 49693,97902
L 49693,97770
L 48483,97770
L 48483,98135
L 47250,98135
L 47250,97667
L 46063,97667
L 46063,97599
L 44852,97599
L 44852,97538
L 43636,97538
L 43636,97004
L 42491,97004
L 42491,97602
L 41153,97602
L 41153,97327
L 39958,97327
L 39958,96847
L 38812,96847
L 38812,96442
L 37658,96442
L 37658,96120
L 36483,96120
L 36483,95254
L 35482,95254
L 35482,95468
L 34133,95468
L 34133,95012
L 33001,95012
L 33001,94106
L 32054,94106
L 32054,93769
L 30884,93769
L 30884,93651
L 29604,93651
L 29604,92861
L 28634,92861
L 28634,92406
L 27502,92406
L 27502,91998
L 26336,91998
L 26336,91169
L 25409,91169
L 25409,90232
L 24564,90232
L 24564,90177
L 23150,90177
L 23150,89560
L 22088,89560
L 22088,88650
L 21236,88650
L 21236,88118
L 20102,88118
L 20102,86741
L 19648,86741
L 19648,86162
L 18552,86162
L 18552,85221
L 17767,85221
L 17767,84875
L 16421,84875
L 16421,83824
L 15740,83824
L 15740,82993
L 14843,82993
L 14843,81945
L 14183,81945
L 14183,80857
L 13587,80857
L 13587,80371
L 12262,80371
L 12262,79424
L 11480,79424
L 11480,78153
L 11142,78153
L 11142,76942
L 10758,76942
L 10758,76346
L 9462,76346
L 9462,75317
L 8797,75317
L 8797,74285
L 8134,74285
L 8134,73099
L 7748,73099
L 7748,71829
L 7551,71829
L 7551,70968
L 6553,70968
L 6553,69730
L 6324,69730
L 6324,68735
L 5558,68735
L 5558,67351
L 5741,67351
L 5741,66220
L 5328,66220
L 5328,65210
L 4554,65210
L 4554,64094
L 4051,64094
L 4051,62798
L 4165,62798
L 4165,61656
L 3764,61656
L 3764,60576
L 3060,60576
L 3060,59449
L 2481,59449
L 2481,58187
L 2574,58187
L 2574,56960
L 2538,56960
L 2538,55715
L 2716,55715
L 2716,54590
L 1802,54590
L 1802,53347
L 1991,53347
L 1991,52121
L 2114,52121
L 2114,50911
L 1916,50911
L 1916,50285
L 94619,50285
L 94619,48466
L 1668,48466
L 1668,47274
L 2282,47274
L 2282,46020
L 1813,46020
L 1813,44862
L 2493,44862
L 2493,43617
L 2321,43617
L 2321,42430
L 2611,42430
L 2611,41152
L 2391,41152
L 2391,40031
L 3016,40031
L 3016,38816
L 3168,38816
L 3168,37657
L 3556,37657
L 3556,36624
L 4359,36624
L 4359,35231
L 3961,35231
L 3961,34126
L 4512,34126
L 4512,33010
L 5012,33010
L 5012,31914
L 5549,31914
L 5549,30782
L 5995,30782
L 5995,29877
L 6931,29877
L 6931,28750
L 7371,28750
L 7371,27478
L 7547,27478
L 7547,26548
L 8377,26548
L 8377,25638
L 9214,25638
L 9214,24112
L 9053,24112
L 9053,23078
L 9714,23078
L 9714,22544
L 11086,22544
L 11086,21315
L 11456,21315
L 11456,20475
L 12356,20475
L 12356,19659
L 13271,19659
L 13271,18667
L 13970,18667
L 13970,17259
L 14223,17259
L 14223,16823
L 15542,16823
L 15542,15619
L 16055,15619
L 16055,14805
L 16970,14805
L 16970,14058
L 17942,14058
L 17942,13467
L 19040,13467
L 19040,12958
L 20188,12958
L 20188,11496
L 20587,11496
L 20587,11082
L 21803,11082
L 21803,10241
L 22702,10241
L 22702,9851
L 23906,9851
L 23906,8932
L 24765,8932
L 24765,8868
L 26139,8868
L 26139,7628
L 26834,7628
L 26834,7179
L 27979,7179
L 27979,6608
L 29058,6608
L 29058,6132
L 30182,6132
L 30182,5897
L 31407,5897
L 31407,4952
L 32338,4952
L 32338,5188
L 33728,5188
L 33728,4766
L 34860,4766
L 34860,4099
L 35920,4099
L 35920,3577
L 37037,3577
L 37037,3198
L 38200,3198
L 38200,3484
L 39518,3484
L 39518,3138
L 40681,3138
L 40681,3177
L 41916,3177
L 41916,2437
L 43024,2437
L 43024,2285
L 44232,2285
L 44232,1805
L 45409,1805
L 45409,1997
L 46652,1997
L 46652,1708
L 47860,1708
L 47860,1841
L 49087,1841
L 49087,1594
L 50309,1594
L 50309,2106
L 51519,2106
L 51519,2058
L 52738,2058
L 52738,1966
L 53966,1966
L 53966,2505
L 55136,2505
L 55136,2336
L 56380,2336
L 56380,2580
L 57574,2580
L 57574,2857
L 58760,2857
L 58760,2730
L 60029,2730
L 60029,3421
L 61122,3421
L 61122,3902
L 62250,3902
L 62250,4274
L 63400,4274
L 63400,4367
L 64638,4367
L 64638,4601
L 65842,4601
L 65842,5080
L 66963,5080
L 66963,5654
L 68043,5654
L 68043,5981
L 69223,5981
L 69223,6400
L 70371,6400
L 70371,7257
L 71306,7257
L 71306,7591
L 72498,7591
L 72498,8201
L 73550,8201
L 73550,8781
L 74620,8781
L 74620,9577
L 75555,9577
L 75555,10299
L 76530,10299
L 76530,10753
L 77690,10753
L 77690,11565
L 78602,11565
L 78602,12232
L 79622,12232
L 79622,13007
L 80559,13007
L 80559,13953
L 81346,13953
L 81346,14655
L 82345,14655
L 82345,15256
L 83451,15256
L 83451,16393
L 84038,16393
L 84038,17386
L 84750,17386
L 84750,18236
L 85611,18236
L 85611,19061
L 86508,19061
L 86508,20065
L 87194,20065
L 87194,20596
L 88491,20596
L 88491,22004
L 88639,22004
L 88639,22938
L 89414,22938
L 89414,23814
L 90289,23814
L 90289,24788
L 91029,24788
L 91029,26054
L 91278,26054
L 91278,27083
L 91915,27083
L 91915,27942
L 92892,27942
L 92892,28921
L 93674,28921
L 93674,30316
L 93570,30316
L 93570,31326
L 94293,31326
L 94293,32527
L 94565,32527
L 94565,33724
L 94822,33724
L 94822,34633
L 95912,34633
L 95912,35867
L 96072,35867
L 96072,37131
L 96085,37131
L 96085,38183
L 96868,38183
L 96868,39344
L 97288,39344
L 97288,40571
L 97413,40571
L 97413,41788
L 97564,41788
L 97564,43033
L 97498,43033
L 97498,44296
L 97190,44296
L 97190,45426
L 98016,45426
L 98016,46666
L 97801,46666
L 97801,47894
L 97514,47894
L 97514,49086
L 98205,49086
L 98205,50305
" />
  <rect fill="yellow" x="5741" y="50285" width="88878" height="17066" />
</svg>
